<svg xmlns="http://www.w3.org/2000/svg" aria-hidden="true" data-illustration="inbox" focusable="false" viewBox="16.6 -5.9 565.9 452.7"><g fill="var(--art-accent,currentcolor)" data-part="accent"><path d="M344 61c-5 2-18 10-43 26-9 6-21 14-28 19-21 13-21 12 26 20 20 3 57 9 82 14 51 8 48 8 51 5s2-4-17-24c-10-10-26-27-37-38-23-25-25-27-34-22"/></g><g fill="var(--art-ink,currentcolor)" data-part="ink"><path d="M346 54c-5 2-15 8-60 37-15 11-29 20-30 21-1 3-5 30-7 59l-1 7h-3c-5-1-48-7-67-9-23-2-21-5-27 29l-3 20-19 10c-48 23-46 21-45 42 0 30 1 50 2 52 2 1 24 6 158 35 90 19 152 32 157 32s8-1 21-11c20-15 85-68 91-74l4-3v-36c0-33 0-35-2-36-2-2-11-4-42-8-22-3-40-6-40-6-1 0 1-14 3-30 3-34 4-42 1-46-4-6-74-81-77-83-4-2-10-3-14-2m11 7c1 1 11 11 21 22 11 11 27 28 37 38 19 20 20 21 17 24s0 3-51-5c-25-5-62-11-82-14-47-8-47-7-26-20 7-5 19-13 28-19 46-30 48-31 56-26m-94 63c8 6 47 60 44 61l-21-2c-10-2-21-3-25-4-10-1-9 1-7-23 2-12 3-25 4-28 0-8 0-8 5-4m77 12c36 6 70 12 73 12l7 1-6 3c-4 2-14 9-24 15-9 7-24 17-34 23l-17 12-1-4c0-6-1-8-4-9-2-1-17-3-20-3l-6-8c-7-11-22-32-32-44-4-6-6-10-5-10 1 1 32 6 69 12m95 16c-1 5-8 62-10 80 0 9-1 17-2 18 0 1-87-8-89-9 0-1 3-33 4-34 7-7 78-52 85-55 5-1 9-3 9-3q3-3 3 3m-217 26c67 8 114 14 115 15s-25 15-81 42c-30 16-26 17-49-10-8-10-20-24-27-32-16-17-17-17-15-20 2-2 1-2 57 5m-29 36c35 40 34 40 44 35 6-2 51-26 75-39 9-5 19-10 21-11l4-2-1 2c0 2-1 11-3 21-3 23-2 20-14 18-16-2-16-2-28 5-6 3-26 14-45 24-29 14-36 18-40 22l-4 4-18-3c-10-2-19-3-21-3-1-1-3-3-6-12-2-6-5-12-6-13l-3-3 7-38c4-21 7-39 8-40 0-2-3-6 30 33m283 11c49 7 46 6 29 19-14 10-53 42-77 62l-16 13v32c0 25 0 32-1 32-1-1-2-8-2-32v-31l-13-2c-32-7-30-7-41 9-12 20-5 19-69 5-29-6-67-14-87-18-43-10-37-5-50-39-4-11-3-10-31-15-27-4-26-4-24-7 1-1 54-30 56-30 4 0-4 5-25 16-26 14-26 14-25 14 0 1 10 2 21 4 29 6 26 3 35 25 8 23 3 20 52 30 21 4 58 12 83 18 58 13 50 13 63-6 10-16 9-15 34-11 23 4 20 5 45-15 26-22 48-40 65-53 14-11 14-12 8-12-49-8-70-12-70-13s-2-2 40 5m-157 17c18 3 85 10 114 13 23 3 23 3 26 6 5 5 2 10-11 17-11 7-31 22-40 29-5 6-12 7-15 4-2-2 23-22 48-39 11-7 15-11 13-11-5 0-53 35-61 44l-5 5-9-2c-14-2-19 0-26 11-3 5 1 5-42-3-84-15-96-17-96-15v1c1 0 30 5 67 12 36 7 65 12 66 12 0 0 0 2-2 4l-2 2-34-6c-39-8-59-12-77-15-14-3-19-4-17-2 0 1 77 16 117 24 8 1 11 3 6 4-1 0-16-3-34-7s-47-10-65-14c-35-8-36-8-36-14 0-10 4-12 46-33 15-8 34-18 41-22s13-7 13-7zm123 44c-3 2-11 9-18 15-12 10-20 15-18 11 2-3 37-29 39-29 0 0-1 2-3 3"/><path d="M299 259c0 1 0 1 1 1 0 0 24 3 52 7 48 6 55 6 51 4-3-2-104-13-104-12"/><path d="M286 267c0 1 0 1 52 8 47 6 51 7 51 5 0-1 0-1-1-1 0 0-34-4-74-10-30-3-28-3-28-2"/><path d="M439 274c-20 13-46 34-44 36 0 1 4-2 9-6 11-10 23-19 36-28 6-3 11-7 11-7 0-2-3-1-12 5"/><path d="M275 275s2 1 4 1c2 1 23 4 48 7 45 7 49 8 49 6 0-1 0-1-52-8-48-7-49-7-49-6"/><path d="M262 282c0 1 0 1 1 1 0 0 10 2 21 3 66 12 66 12 66 10 0-1 1-1-45-8-43-8-43-7-43-6"/></g></svg>