<svg xmlns="http://www.w3.org/2000/svg" aria-hidden="true" data-illustration="library" focusable="false" viewBox="-30.6 -35 666.2 533"><g fill="var(--art-accent,currentcolor)" data-part="accent"><path d="M122 224c-4 5-5 10-10 34-1 6-4 17-7 24-2 7-4 13-4 14s4-2 11-8c6-5 7-6 8-2 2 5 6 14 7 13s7-28 10-42c3-19 7-30 12-31 3-2-2-3-14-4-10 0-11 0-13 2"/></g><g fill="var(--art-ink,currentcolor)" data-part="ink"><path d="M428 46c-14 5-18 15-9 24 6 6 6 7 6 16v8h-5c-3 1-7 1-10 1-5 0-8 3-8 7v2h-16c-10-1-16-1-16 0-1 1-3 1-4 1-2 0-4 1-5 1-1 1-2 2-4 2-3 0-5 2-5 5 0 2-1 3-2 3-2 1-3 5-3 9 8 33 11 48 11 49l-23-2c-65-6-92-7-108-5-101 16-148 26-154 32-8 8-9 43-1 48 3 2 3 2-10 5-11 2-14 4-16 12-7 19-4 51 4 53 3 1 2 2-1 3-9 1-13 7-7 11l3 1-2 6c-1 6-1 23 0 27 1 1 0 2-1 2-4 1-7 5-5 8 1 4 0 3 34 8 15 3 72 12 125 21 87 15 97 16 101 15 3-1 22-8 44-18 21-9 42-17 46-19l8-3v3c1 1 1 5 1 7 2 9 5 14 9 12 0-1 1 0 2 1 1 3 4 3 8 2q3-1.5 3 0c1 2 5 2 10 1 3-1 4-1 5 0 2 1 7 1 10 0 1-1 5-1 9-2s15-4 25-7 31-9 47-13c45-12 43-12 45-15 1-5 1-9-7-34-18-53-35-120-50-195-9-42-7-39-27-38l-13 1v-3c0-4-1-5-10-5-9-1-9-1-12-11-4-10-4-11 0-18 8-14-5-25-22-19m13 2c9 2 10 8 5 17-3 7-3 10 8 39 9 25 10 28 8 29-1 1-1 0-1-1 0-2-1-5-2-9-5-11-17-47-17-50 0-2 1-6 3-9 7-14-10-21-22-9-5 5-5 7 0 12 7 6 7 7 7 36 0 23 0 27 2 27 0 1 1 1 1 2s0 1-1 0-3-1-6 0c-3 0-4 0-4-1 1-1 2-1 4-1h2V75l-5-5c-2-2-5-5-5-6-5-8 12-19 23-16m1 7c3 2 2 3 0 9-4 7-3 14 2 28 0 1-1 1-5 1h-6V83l-1-11-5-5c-5-6-5-6-4-8 4-5 15-8 19-4m58 51c1 1 4 11 6 24 18 86 36 155 55 213 9 26 10 24-25 33-32 9-43 12-63 18-22 7-25 7-29-5-18-45-29-87-56-212-9-40-14-62-16-69 0-1 35-2 37-1 0 1 2 8 4 17 2 8 4 16 5 16 3 2 15 0 16-2s1-2 3 0c3 2 16 1 19-2 1-2 1-2 3 0 2 3 14 2 17-1 3-2 2-8-1-9-1-1-2-2-2-5 0-2 0-6-1-10v-6h8c19-1 19-1 20 1m-131 4c3 2 4 7 17 65 16 76 26 120 35 151 7 27 20 65 24 71 1 2-4 7-8 6s-23-68-33-120c-1-3-1-5-2-4-1 3 15 72 25 109 3 11 3 11 1 13s-6 2-7 1c-2-1-14-66-31-162-3-19-6-35-7-35-2-2 11 76 28 162 7 37 7 33 3 34s-4 1-11-36c-3-19-6-35-7-36-1-2 1 16 4 32 5 28 6 35 4 36-2 3-4-2-6-21-7-44-32-181-44-236-4-18-4-21-2-21s13 50 27 123c8 48 16 85 16 81 0-2-5-30-11-64-13-71-16-89-19-115-3-18-5-27-5-22 0 1 1 7 2 13 1 13 1 17-1 7-1-4-2-11-4-17-2-12-2-14 1-14 2 0 3 2 7 23q4.5 16.5 3 9c0-4-1-12-3-20-1-7-2-13-2-14 0-2 5-1 6 1m103 18c-1 1-3 1-4 1-2 0-2 0-1-1s3-1 4-1c2 0 2 0 1 1m-185 43c14 1 36 3 49 4l23 2 1 8c2 9 4 7-21 14-23 7-52 16-52 17 0 0 9-2 19-5 27-9 51-15 52-15 1 2-3 4-17 8-8 2-25 7-36 11-24 8-23 8-43 5-41-7-143-18-169-18-8 0-15-1-15-3 0-3 108-24 160-30 4-1 19 0 49 2M74 207c-2 5-2 23-1 31 1 6 0 7-2 1-3-12-1-36 4-36 0 0 0 1-1 4m284 4v5l-7 2c-11 3-23 8-23 9 1 0 6-1 12-3 14-5 18-6 19-4 2 2 1 6-1 7-1 1-1 1 1 1s2 1 4 7c0 4 0 4-4 5-10 3-36 11-57 18l-23 8-1-3c-2-4-1-5 6-8 4-1 7-3 7-3 1-1 1-1 0-1-14 6-15 6-15 3 0-2 2-3 6-4 2-1 5-2 6-2 0-1 0-1-1-1-5 2-10 3-10 3-2-2 1-5 4-6 8-2 29-10 29-11-1 0-8 2-16 5-17 6-18 6-18 0s1-7 7-9c5-2 3-2-3 0-1 0-2 0-2-1 0 0 2-1 4-1 2-1 7-2 11-4 16-7 62-20 63-18 1 0 1 3 2 6m-217-2c45 3 99 10 121 15l13 2c1 0 1 1 1 1 0 1 0 2-1 2-2 0-33-4-36-5-1 0-2 0-2 1 0 0 8 2 19 3 21 3 19 2 18 9v6h-7c-4-1-13-1-20-2-8-1-16-1-18-2h-5c1 1 13 3 31 5 21 1 21 2 19 5-1 1-3 1-14 0-17-3-20-2-4 0 19 3 18 3 18 5v3l-11-2c-6 0-19-3-29-4-18-4-24-5-45-7-26-3-42-5-42-8 0-6 6-11 15-11 22 0-23-6-55-7l-13-1 12 2c15 2 16 3 14 5-1 1-3 3-3 5l-2 3h-7c-4-1-8-1-10-2-6 0-1 1 7 3l9 1-1 5v5c-2 1-31-4-31-5-2-5-1-6 6-5s10 1 3-1c-11-2-10-1-11-6 0-2 0-4 1-4 2 0 20 2 23 3 2 0 3 0 2-1 0 0-6-2-13-2-15-2-13-2-12-8s1-6 4-5h15c13 1 9-1-6-2-11 0-14-2-7-2 7-1 20 0 54 3m-64 19c0 3-1 0-1-5 0-4 1-6 1-4zm71-4c2 1 2 1 1 2-5 1-9 12-12 31-3 14-9 41-10 42s-5-8-7-13c-1-4-2-3-8 2-7 6-11 9-11 8s2-7 4-14c3-7 6-18 7-24 7-35 7-37 23-36 6 1 12 2 13 2m17 18c2 1 9 2 14 2 13 1 36 5 55 8 13 3 36 6 40 6l2 4 1 4h-3c-4-1-60-8-72-10-4 0-19-2-33-4l-25-3 1-4c0-2 0-4 1-4 0-1 12 0 19 1m200 1c0 3 4 1-28 12-16 5-34 11-40 14-15 7-4 7-119-8-39-5-36-5-36-8s3-4 8-2c2 0 14 2 27 4s35 5 50 7c15 1 32 4 40 5l13 1 12-4c19-7 67-24 71-24 1 0 1 1 2 3m-265 2 13 2c0 4-32 4-36-1-2-1 3-4 7-4 1 1 8 2 16 3m-38 13h-5c-1-1 0-1 3-1 2 0 3 0 2 1m-3 11c-3 11-3 32 1 44 0 2 0 2-1 1-5-5-5-42 0-51 2-4 2-1 0 6m12-4c0 1-1 3-1 5-3 8-3 35 0 43q1.5 3 0 3c-5 0-6-34-2-47 2-7 5-10 3-4m125 8c12 1 22 3 21 3s-42-5-44-5c-3-1 3-1 23 2m175 5c0 4-2 5-16 9-3 1-12 4-19 7-8 2-17 5-20 6-4 1-7 2-8 3-2 0-2 0-2-2 0-4 2-8 4-8 1 0 6-2 12-4 11-4 45-15 48-15 1 0 1 1 1 4m-44 4c-10 3-18 6-18 6-2-1 31-12 33-12 1 0-6 3-15 6m-35 4c13 2 14 2 15 4s1 2 0 1c-8-6-10 45-3 56 2 3 20 1 50-8 26-8 23-7 24-4 4 8 7 31 5 41-1 4-1 4-16 10-45 20-70 31-71 30 0-1 1-2 1-4 9-15 3-50-8-49a6640 6640 0 0 0-230-33c-22-2-23-6-4-9 11-2 206 24 243 33l11 2 11-4c12-5 12-6 0-4-9 2-14 2-16 0-7-6-8-42-1-55l2-4-5-1c-3-1-9-2-14-2-5-1-7-2-6-2s7 1 12 2m80 1v4l-11 4c-6 2-11 4-12 4 0 1 0 1 2 1 4-2 18-6 20-6s3 2 3 5c0 1-25 9-45 15-2 1-4 2-3 2s15-4 31-9c16-6 18-6 18-1 0 3 0 3-12 7-14 4-13 5 1 1 6-2 11-3 11-2 2 2 3 9 2 10-3 2-40 14-53 17-7 2-15 3-16 4-2 0-2 0-2-9v-9l9-3c10-3 9-4-1-1-4 1-7 2-7 2-2 0-1-9 1-10 18-6 29-10 28-11 0 0-4 1-8 3-4 1-11 3-15 5l-7 2v-4c0-3 0-4 1-4s15-4 32-10c34-11 33-11 33-7m-114 9c-2 12-3 29-1 39q3 10.5 0 6c-4-6-5-31-2-45 4-15 6-15 3 0m15-7c-5 13-6 38-3 49 1 5 1 6 0 6-5 0-5-41 0-55 1-2 3-3 3 0M92 338c69 8 164 22 184 27 5 1 11 2 13 2 10 0 12 47 1 49-1 0-39-6-86-14-46-8-101-17-122-20s-39-6-40-7c-3-1-2-4 2-5 3-1 3-2 3-5 0-4-1-4 18-1 7 1 13 2 14 2 0-1-12-3-24-5-8-1-9-2-9-8 0-5 0-5 2-5 3 1 17 3 26 4 4 0 12 1 17 2l12 1c-1-1-19-4-37-6-21-2-21-2-19-8 0-3 1-3 3-3h12l10 1-12-2c-12-1-13-1-12-3 1-1 10-1 44 4"/><path d="M367 114c0 4 13 85 15 86 1 1 0-7-3-23-2-10-5-27-7-38-3-20-5-28-5-25"/><path d="M340 214c-1 1-6 2-11 3-10 3-30 11-30 12 1 0 41-14 42-14 0-1 0-1-1-1"/><path d="M329 236c-24 9-36 13-36 14 1 0 56-19 57-19 1-2-4 0-21 5"/><path d="M329 243c-22 8-27 10-25 10 1 0 40-13 43-15 5-2 1-1-18 5"/><path d="M182 218c2 1 45 6 49 6 3-1-7-2-29-4-22-3-23-3-20-2"/><path d="M181 228c0 1 10 2 22 3s26 3 32 3c16 3 21 3 19 2-6-3-75-10-73-8"/><path d="M155 233c1 1 14 3 27 4 7 1 14 1 17 2 3 0 3 0 1-1-3-1-46-6-45-5"/><path d="M333 323c-6 3-13 5-15 6-3 1-5 2-5 3 1 1 31-11 31-12s1-2-11 3"/><path d="M354 323c-10 3-15 5-13 5s18-5 22-7c6-3 4-2-9 2"/><path d="M83 345c4 1 13 2 21 3s27 4 42 7c32 6 38 6 37 6-1-1-6-2-12-3-7-1-19-3-27-5-17-3-47-8-59-8l-8-1z"/><path d="M206 359c2 1 18 3 34 5 15 3 33 6 39 7l11 1-1 4c0 3 0 5-1 5 0 0-7-1-16-3-20-5-51-10-50-9 0 1 7 2 15 3 39 7 51 10 52 13 0 3 0 3-3 3-14-3-32-6-34-6-1 0 6 2 16 4s18 3 19 4c2 0 2 1 2 4v5l-11-3c-16-3-40-7-42-7 0 0 11 3 26 6 25 5 27 6 27 7 0 2 0 3 1 5 0 2 0 2-6 0-24-5-216-35-229-36-14-2-2 1 27 6 27 4 113 18 177 28 31 5 31 5 33 1s2-23 1-30l-2-5-6-1c-3 0-10-2-16-2-7-1-15-3-19-3-9-2-43-7-47-7-1 0-1 1 3 1"/><path d="M76 359c0 1 5 1 10 2 4 1 17 2 27 4 21 4 29 4 11 0-18-3-49-7-48-6"/><path d="M147 363c2 1 32 6 35 6 1 0-5-2-15-3-10-2-19-3-20-4-2 0-2 0 0 1"/><path d="M100 370c7 2 12 2 8 1-2-1-6-1-9-1l-6-1z"/><path d="M145 371c9 2 21 4 17 2-4-1-19-4-22-4-1 0 1 1 5 2"/><path d="M189 371c1 0 8 1 16 3 9 2 21 4 27 6 17 3 17 2 0-2-22-6-45-9-43-7"/><path d="M166 375c1 0 23 4 25 4 4 0-1-1-10-3-10-2-16-3-15-1"/><path d="M159 381c5 1 45 8 47 8 5 0 1-1-21-5-19-3-33-5-26-3"/></g></svg>