<svg xmlns="http://www.w3.org/2000/svg" viewBox="0 0 360 270" fill="none" aria-hidden="true" focusable="false">
<path fill="var(--ochre-tint)" d="M0 0H360V270H0Z"/>
<path fill="var(--ochre)" d="M186 106L205 101L246 147L247 185L235 178L226 188L225 153Z"/>
<path stroke="currentColor" stroke-width="1.5" stroke-linecap="round" stroke-linejoin="round" vector-effect="non-scaling-stroke" d="M86 173L80 177L140 222L286 187L278 180 M80 177V183L140 228L286 194V187 M140 222V228 M95 157L85 161L137 209L226 187 M248 182L280 174L269 165 M85 161V167L137 216L280 181V174 M137 209V216 M105 141L92 145L141 194L225 173 M247 167L277 159L267 150 M92 145V152L141 201L226 180 M248 173L277 166V159 M141 194V201 M100 128L186 106 M205 101L229 94L273 142L246 150 M225 156L145 179L100 128 M123 136L191 118 M130 144L197 125 M138 153L204 133 M145 160L207 143 M216 111L229 108 M222 118L235 115 M228 125L241 122 M186 106L205 101L246 147L247 185L235 178L226 188L225 153Z M192 109L231 151L233 173"/>
</svg>
