<svg xmlns="http://www.w3.org/2000/svg" aria-hidden="true" data-illustration="making-work" focusable="false" viewBox="-62.4 -46.2 729.7 486.5"><g fill="var(--art-accent,currentcolor)" data-part="accent"><path d="M357 55c-1 0 0 1 0 2 1 2 5 0 5-2 0-1-5-1-5 0"/><path d="M392 57c-2 1-6 4-8 7-3 2-6 4-7 4-1 1-4 1-6 1-13 3-19 16-16 37 1 12 0 18-7 30-10 19-11 39-2 45 6 4 12-1 12-9 0-3 0-7 1-9s1-5-1-8c-2-8-2-8 7-5 3 0 3 0 4-4 0-2 1-5 2-7 1-3 1-5 0-11-3-23-1-26 8-18 7 6 7 6 7 3 0-6 3-11 10-17s12-13 13-21c3-15-6-24-17-18"/><path d="M149 141c-1 0-2 0-3 1h-3c-1 0-1 1-1 2s0 2 1 2c0 1 1 2 1 2 0 1 2 2 6 2h6v-3c0-3 0-4-1-4s-2-1-3-2-2-1-3 0"/></g><g fill="var(--art-ink,currentcolor)" data-part="ink"><path d="M409 19c0 1-1 3-1 5-3 11-3 11-7 11-7 0-9 1-10 4-1 4-2 4-24 6-17 0-17 0-18 7-1 3-1 5-1 6-3 2-12 4-17 3-6 0-6 0-10 3-2 1-7 4-12 5-11 4-10 7 1 4 6-2 5-2 4 5-2 7-21 26-24 24-1-1-2-1-5 0-1 0-3 1-3 0-1 0-2 0-3 1-4 2-7 1-17-4-6-3-12-5-15-6-9-1-17-7-11-8 1-1 4-1 5-1 6-2 8-7 7-15v-5c1 0 1-1 1-3 0-1 0-2 1-3 2-1 1-4-2-7-2-2-2-3-2-6 0-4-4-8-7-8s-3-1-3-4c1-6-12-8-18-2-2 2-4 3-4 2 0 0 0-1-1-1s-1 0 0 1c0 1-2 1-4 1-5 0-10 3-12 7-2 3-3 4-5 2-1-2-4 1-4 4l-2 2c-2 0-5 5-5 8q0 1.5-3 3c-6 2-8 10-4 14 1 1 1 2 1 5 0 4 4 8 8 8 2-1 3 0 4 1 0 3 3 4 8 4 2 0 4 0 6 1 1 0 3 1 4 1 3 0 1 4-2 6-11 5-16 12-20 24-1 3-3 7-4 8l-3 3-6-2c-13-3-29 0-35 6-6 8 2 18 19 22 3 1 8 3 11 5 2 2 6 5 7 6 2 0 5 2 7 4 6 4 17 0 19-8 0-1 1-3 1-4 1 0 1-3 2-5 0-6 1-10 2-11 1 0 1 2 0 5 0 6 1 9 5 10 1 1 0 3-4 9-12 19-13 31-4 60l3 8-4 6c-1 4-10 21-19 38-13 26-16 33-15 34 2 3 1 4-3 6-8 3-10 7-6 15 2 2 4 8 5 11 4 13 15 20 23 16 3-3 3-4-2-9-3-4-3-4-4-13 0-12 0-13 7-9 4 1 7 2 11 2h5l6-13 6-13-2-22c-1-13-2-25-3-27-1-7-1-8 1-3 0 3 2 16 3 28 3 33 7 69 9 71 1 1 3 1 11 1 9 0 11 1 11 2-4 8-2 11 9 13 4 1 9 2 12 3 7 2 20 1 23-1 5-3 2-6-11-12-6-3-11-6-13-8l-2-2 4-2c4-3 4-3-1-21s-8-33-11-52c-5-26-8-40-12-58-4-16-5-18-3-19 2-2 4-1 2 1s-2 3 3 24c3 12 6 22 6 21 1-1 9-24 11-34 4-13 3-30 0-40-5-13-5-13-2-17 3-3 3-4 3-8-2-15-2-17 0-17 5 2 11 3 14 2 1 0 3 0 5 2 4 1 4 1 6 0s4-2 5-2c3 0 6-3 7-6 0-2 2-6 5-9s8-10 11-16c4-6 8-13 10-15 2-3 4-6 5-9s5-8 5-5c0 0 1 0 2-1s1-3 1-4c0-3 0-3 4-5 6-2 6-4 1 27-3 15-9 48-13 72-4 25-8 47-9 48q0 3-3 3c-2 0-3 1-3 4-2 5-1 6 11 6 6 1 11 1 11 2 0 0-7 28-16 62-16 63-16 63-11 64 4 1 6-1 15-37 5-19 9-35 9-35 0-1 67 5 69 5v8c-2 24-3 78-2 80 2 1 6 1 8 0 0-1 2-18 2-38 1-20 3-51 4-68 0-17 1-33 1-35v-4h13c12 1 13 1 14-1 0-1 3 15 8 40 15 82 15 81 21 75 2-1 2-2-5-40-4-20-10-55-14-77l-7-40 8-50c4-28 8-60 10-71 2-12 3-21 3-22-4-3-7-3-21-2-22 1-22 1-22-1 0-3-3-5-6-5-1 0-1-1 0-7 1-4 1-8 1-8-1-3-8-3-9 0m7 4c-2 10-6 15-9 12 0-1 2-12 3-15 2-3 6-1 6 3m0 16c0 3-4 4-17 4h-7l1-3c1-2 1-3 10-3 4 0 10-1 11-1 2 0 2 1 2 3m5 0c0 1-1 2-1 2-2 1-2 0-2-2 0-1 1-2 2-2 0 0 1 1 1 2m36 4c0 2-3 24-7 50-4 25-9 64-13 85-6 45-5 40-12 39-3 0-27-1-54-2-27 0-49-1-49-1 0-1 2-13 5-29 3-15 8-47 13-70 10-59 8-53 13-53 5-1 10-5 10-8 0-1 0-1-1 1-2 4-6 4-5 0 0-1-4-1-4 0-3 3-3 0-1-6 0-2 9-3 40-4 7 0 16 0 19-1 2 0 13-1 23-1l21-2c2 0 2 1 2 2m6 0c1 0-1 14-7 54-4 29-10 69-13 87-4 33-4 34-7 34s-3 2 1-26c5-28 17-113 20-135 2-14 3-16 6-14m-228 4c2 2 4 5 4 7 1 3 4 6 7 6 1 0 1 1 1 2v5c-1 3-3 5-7 4-2-1-2-1-1 0 3 2 3 2 6 1 2-1 2-1 2 2 0 4-4 8-9 8-5 1-6 3-7 10 0 4 0 6 1 5 1-2 2 1 2 7 0 11 0 11-10 1l-9-9 1-4c1-2 3-5 4-6 4-4 3-11-1-9-4 0-9-4-8-7s1-3 6-3c6 1 8-2 7-7 0-2 1-4 2-6 2-2 2-4 2-7 0-4 3-4 7 0m117 12v1s-2 0-4 1c-3 1-4 0-1-2 3-1 4-1 5 0m-172 3-4 4c-2 1-3 0-1-2 1-1 6-4 7-4zm152 2s-1 0-3 1c-3 0-5 1-6 4-3 4-2 5 3 0 6-4 8-3 3 1-1 2-3 5-4 6 0 2-1 5-2 6s-1 2 0 2c0 0 2-1 3-3q1.5-3 0 0c0 1-2 4-3 6-2 2-7 8-10 14-4 6-8 13-11 16l-4 4v-3c-1-1-2-5-3-8l-2-5 11-11c10-10 11-11 12-17 2-11 10-18 16-13m-95 29c5 4 8 14 5 11-3-2-4-1-6 3l-1 3 1-4c0-3 0-6-1-9-3-8-2-9 2-4m-22-1c0 1-2 2-2 1-1-1-1-1-1 0q0 3 12 15c4 4 6 6 4 5-3 0-2 1 2 3s7 8 8 17c0 4 1 7 1 6 2-1 1-8-2-16-2-7-2-8-1-11 3-7 3-7 6-5 4 2 5-1 2-7l-3-6 4 1c3 0 9 2 15 5 5 3 11 5 13 6 4 0 5 1 6 9 3 16 0 19-13 17-6-1-7-2-7-5 0-2-1-7-2-10-1-4-2-8-2-10 0-1-1-2-1-3-2 0-1 7 2 15 1 3 1 10 2 15 0 6 0 13 1 15 0 6-2 9-7 9-2 0-2 0 0-2 2-3 1-2-5 1-5 3-10 3-18 3h-3l2-2c4-3 2-2-5 1s-12 4-16 1c-2-1-3-6-1-8 1 0 1-2 0-4-2-4-2-4 0-9 1-2 2-5 2-6s-1 0-1 1c-2 3-2 3-2-3-1-6-4-15-6-15-1 0 0 2 1 4 3 6 5 18 3 20-1 1-1 1-1-1s-3-7-3-6 1 4 1 6c3 8 0 19-3 12-1-3-7-9-9-9-1 0-3-1-4-3-1-1-3-2-4-2-2 0-1-2 1-5 1-2 3-5 4-8 4-12 6-15 15-21l5-3 4 8c4 9 5 9 9 5 2-3 3-4 4-3 3 0 3-2 0-2-1-1-2 0-5 3l-3 3-3-7c-5-9-5-9-2-13 2-3 6-4 6-2m78 17c3 9 4 17 2 20-3 4-5 4-4-1 0-4-1-4-2 1-1 4-4 6-7 6-2-1-2-2-1-4 1-3 1-10-1-18-2-12 3-12 7 0 1 4 2 5 2 3 0-1-1-4-2-7-2-5-2-6 1-6 2 0 3 2 5 6m-124 26c12 2 17 6 14 12l-2 3 2 2c9 10-21 13-39 4-21-11-3-26 25-21m24 12c0 1-1 1-2 0-2 0-2 0 1 2 5 3 10 13 6 13l-1-1c0-3-6-10-9-11-3-2-4-3-1-3 1 0 1 0 0-1 0-1-1-2 0-2 0-1 6 2 6 3m-5 5c4 1 8 9 8 13 0 8-10 14-16 10-1-2-1-2 2-2 10 0 12-15 3-22-3-1-1-1 3 1m1 12c0 9-11 10-22 2l-4-3h7c6 0 7 1 6 2 0 1 0 1 2-1 1-1 4-2 5-3 2 0 3-2 4-3 1-2 2 1 2 6m262 62c6 41 16 97 18 107 1 6 1 8 1 8-2 1-3 1-4-1-1-4-24-125-24-130 0-3 2-18 3-17 0 1 2 16 6 33m-83-9c73 3 66 2 65 7l-1 2h-21c-39-2-95-4-96-4 0-1 0-2 1-3 0-4-5-3 52-2m71 4c3 1 2 6-2 6-3 0-3-1-2-5 0-2 0-2 4-1m-61 6h16v6c2 13 3 39 3 40-1 0-10-1-21-1-11-1-25-2-30-3-6 0-10 0-10-1 0 0 10-40 10-42 1-1 3-1 9 0 4 0 15 0 23 1m-34 3c-1 1-8 28-16 60-15 59-16 62-19 60-2-1 1-15 28-121 1-3 1-3 4-2q3 1.5 3 3m60 16c-2 35-4 38-6 7-3-29-3-26 2-26h4zm8-16c1 0 1 2 1 13-2 29-6 122-6 126 0 3 0 3-3 3s-3 0-3-3c0-8 3-93 4-111 1-10 1-21 1-24 0-5 0-5 2-5 1 1 3 1 4 1m-43 43c35 3 33 2 33 7 0 3 0 3-3 3-2-1-17-2-32-3-36-3-34-2-33-6s-2-4 35-1m-196 54 5 4-1 5c-2 4-2 5-6 2-4-2-7-12-5-14 2-1 2-1 7 3m-9 0c0 6 6 15 10 15 3 0 4 12 2 13-2 0-2 0 1 1s7 4 7 6-10 1-13-2c-8-6-16-31-11-34 3-1 4-1 4 1m98 30 2 3-2 1c-2 1-3 2-3 2 0 1 5 1 7 0s21 7 21 9c0 1-5 2-11 2-7 0-33-6-33-7 0-7 6-12 16-13 0 0 2 1 3 3"/><path d="M426 79c-20 14-26 26-26 54-1 19-1 25-2 14-2-16-7-26-17-36-10-8-11-8-11 1 0 22 5 34 18 45 8 6 9 8 9 19-1 13-2 14-4 5-4-14-11-23-24-29-13-7-14-6-8 12 6 14 11 20 22 25 9 4 11 7 7 15-2 4-2 5 1 5q3 0 6-15c4-12 4-13 14-19 15-10 19-17 23-37 2-12 2-12-6-8-12 7-20 17-25 32l-2 7v-5c0-15 2-22 12-33 13-14 16-22 18-41 2-16 2-16-5-11"/><path d="M230 54c-2 3-1 3 2 0 2-2 3-3 2-3s-3 1-4 3"/><path d="M235 59c0 2 2 4 3 3 0-1-1-5-2-5s-1 1-1 2"/><path d="M272 116c-1 3-3 6-2 6l4-6c2-3 3-6 2-6z"/><path d="M235 140c-1 2-2 5-4 6-2 3-1 4 1 1 2-2 5-8 5-9s-1 0-2 2"/><path d="M248 139c0 1-2 4-3 8-2 4-3 7-3 7 1 0 8-14 8-15s0-1-1-1-1 0-1 1"/><path d="M168 142c-1 3 2 5 6 5s6-2 4-5c-2-2-10-2-10 0m8 1c1 2 1 2 0 3-3 0-7-2-6-3 0-1 3-1 6 0"/><path d="M161 152c-2 2 1 4 6 5 8 1 11-3 5-6-5-1-9-1-11 1"/></g></svg>