<svg xmlns="http://www.w3.org/2000/svg" aria-hidden="true" data-illustration="celebrate" focusable="false" viewBox="-123.1 -83.9 1141.2 760.8"><g fill="var(--art-paper,none)" data-part="paper"><path d="M615.5 18.7c-5.9.7-30.1 5.3-33.8 6.3-3.1.9-3.6 1.4-2.8 2.8.5.9 2.6 7.8 4.7 15.2l3.9 13.8c.1.1 2.3-.9 4.8-2.4 10.5-5.8 13.4.3 4.2 8.9l-5.6 5.4 4.6 18.9 5 21.2q.5 2.5 2.3 1.7A362 362 0 0 1 655.1 97c5.2 0 5.2-.4-3.6-28.5l-12.2-38.8-3.6-11.7-8.6.1c-4.7.1-9.9.4-11.6.6M630 40.9c0 1.1-2.2 1.6-16.9 3.6-6.2.8-12.4 1.8-13.6 2.1-1.3.3-2.6.1-2.9-.4-.7-1.1 4.4-2.4 18.9-4.6 11.1-1.7 14.5-1.9 14.5-.7m4.1 15.6c-.4.8-27.8 6.4-31.8 6.5s-.2-2.1 6.1-3.5c17.3-3.9 26.5-4.9 25.7-3m4.4 13.5c.7 1.1 0 1.3-17 4-14.5 2.3-16.9 2.4-16 1.1.6-1.1 6.8-2.5 20-4.5 11.4-1.8 12.3-1.8 13-.6" data-shape="paper-1"/><path d="M578.8 54.7c-2.8 3-4.1 5.7-6.3 13.2a87 87 0 0 1-4.5 13q-3.5 7-38.7 31c-5.1 3.5-9.3 6.5-9.3 6.7s1.3 2.3 2.8 4.7 3.6 7.1 4.6 10.3l2.6 7.8c.8 2.5 22.1-18.4 37.2-36.5a87 87 0 0 1 14-14.2q10.5-6.2 9.3-11.6l-.6-3-4.5 4.6c-2.4 2.6-4.7 4.3-5.1 4-.3-.4.5-2 1.9-3.5a17 17 0 0 0 5.2-10.4c.5-2.9 1.9-4.8 6.1-8.4 3.2-2.7 5.5-5.5 5.5-6.6 0-2.1-.4-1.9-15.3 6.7-5.1 2.9-7.8 2.6-3.8-.4q2.2-1.8 1.6-3-.5-1.2 1.1-2.6c1.4-1 1.6-1.8.8-3.4-.9-2.1-1-2.1-4.6 1.6" data-shape="paper-2"/><path d="M389.6 66.2q1.2 8.1-4.6 17.1c-3.2 5.1-5.6 6.4-4 2.1 1.9-4.9 1-4.9-1.3.1l-2.4 5 2 4.4c3.6 8.1-.7 16-7.5 13.9-5.4-1.6-8.8.8-8.8 6.1 0 6.9 8.4 11.6 13.6 7.6 5.4-4.1 8.8 3.1 8.3 17.9l-.4 10.1 6.5 4.7 11.5 8.5c9.9 7.5 15.7 11.4 16.3 10.8.3-.3.1-4.3-.6-8.9-1.1-8.4-4-17.2-4.9-14.9-1.6 4.3-4.3-3-4.3-11.7 0-4.7-.4-5.7-2.7-7.6-3.6-2.9-2.4-4.2 6.9-7.4 3.8-1.3 8.4-3.7 10.4-5.3 3.6-3 3.6-3 3.2-9.8-.4-8.1-.7-8.5-4.7-6.5a12 12 0 0 1-9.5 1c-2.8-1.1-1.7-2.6 1.4-1.9s10-1.9 10-3.7c0-.5-.7-2.3-1.6-4-1.3-2.5-1.3-3.5-.4-5.9 1.7-4.1.7-6.3-2.7-5.4-3.9.9-7.9-1.2-9.9-5.3q-5.3-11.8-17.6-14.7c-2.8-.7-2.8-.7-2.2 3.7M399 74q-.2 1-2 2c-1.2.6-2.5 3-3.2 5.5-1.4 5.2-2.8 5.9-2.8 1.4a11 11 0 0 1 3.9-8.6c1.9-1.5 4.1-1.7 4.1-.3m6 10.2c2.2 2.4 2.7 5.8.8 5.8-3 0-6.1-5.4-4.1-7.3.9-1 1-.9 3.3 1.5m-31.4 29.2c2.4 1.8 1.3 3.1-1.4 1.7a11 11 0 0 0-4.2-1.1q-1.9-.1-1.5-1c.9-1.5 4.8-1.2 7.1.4" data-shape="paper-3"/><path d="M511 117.7c-.8.3-2.5 1.5-3.7 2.6l-2.2 2 2.5 1.9c2.1 1.7 6.4 8.6 6.4 10.3 0 1.6-1.9-.1-4.4-4-3.2-5.1-5.2-6.5-9.3-6.5-3.4 0-8.6 3.8-6.4 4.7 8.6 3.4 15.3 26.8 10.8 37.6-1.9 4.3-.9 4.8 4.7 2.2 4.5-2.2 6.6-6.2 6.6-12.8 0-3.1.4-5.9 1-6.2 1.4-.8 2.3 3.9 1.7 8.6q-1 7.5 5.2.4c6.3-7.2 2.6-27-7-38-3.2-3.6-3.4-3.7-5.9-2.8" data-shape="paper-4"/><path d="M482.5 134.6a85 85 0 0 1-29.4 7.4c-5 0-23.6 3.3-24.9 4.5-.2.1 1 2.2 2.6 4.6 4.2 6.3 6.8 13.7 5.4 15.1-.9.9-2.4.5-5.9-1.4l-4.7-2.6-1.8 5.6c-2.2 6.9-2.2 9.6-.4 12.5a94 94 0 0 1 7.6 20.1c0 3.2-1.4.8-5.4-9.7l-3.8-9.8-10-7.2-19-13.8c-10.9-7.8-15.3-13.3-12.3-15.5q2.4-1.6.2-1.4c-1.9 0-5.9 5-8 10.2-1.5 3.5-1.4 3.9 1.3 9.5 1.5 3.2 4.2 7.7 5.9 10.1l3.2 4.3 4.2-5.5c5-6.6 7.9-8.5 10.2-6.6q3.2 2.9-.9 3c-1.8 0-3.7 1.6-7.2 6-2.6 3.3-5.3 6-6 6-2.7 0-13.4-16.2-13.4-20.4 0-2.1.7-2.2-11.2 2.4-21.3 8.2-25.8 14.4-41.4 56.3-3.1 8.4-7.7 18.8-10.2 23.1-3.8 6.5-4.6 8.9-4.7 13 0 8.8 1.1 9.8 4.5 3.9a37 37 0 0 1 15.5-14.3l4-1.9h-3.7c-2.1-.1-3.8-.5-3.8-1.1 0-1.5 6.4-2.3 10.3-1.2 4.2 1.2 3.2 3.3 7.8-16.3 2.1-8.8 2.7-10 4.7-10.3 2.7-.4 2.7-.3 0-8.1-2.2-6.3-2.2-6.3-.3-7.8 1.1-.8 1.9-2.1 1.7-2.9q-.2-1.3.9-1.4c.6 0 1.7-.6 2.3-1.4s13.5-4.6 28.6-8.5c24.8-6.4 27.6-6.9 28.7-5.4q1.2 1.4 3.2 1c2.8-.7 3.4.4 7.1 12.9 3.3 11.2 3.3 11.2 6.7 11.7q6.4 1 6.3 5c0 1.1.7 2.8 1.5 3.7 2.3 2.6 3.1 18.2 1 21.4-1.5 2.3-1.5 2.9.3 9.3 2.4 8.7 4.6 8.9 13.3 1.3 6-5.2 8.2-5 3.2.3l-2.8 2.9 3.5-.7c11.2-2.4 11.4-2.9 11.8-25.3.4-27.1.4-27.6-1.7-36q-4-16.1-2.3-16.2a26 26 0 0 1 3.2 8.5c1.3 4.7 2.6 8.5 2.9 8.5s3.5-5.7 7.1-12.7 7.1-12.9 7.8-13.1-2.1 6.4-6.2 14.7c-4.2 8.3-7.6 15.8-7.6 16.7 0 2.1 2.1 1.3 14.7-5.5 23.3-12.6 30.1-24.3 24.3-41.7-1.9-5.5-7.2-13.5-8.8-13.3zM421 187q0 1.8-.9 2c-1.4 0-2.3-1.8-1.6-3 1-1.7 2.5-1.1 2.5 1" data-shape="paper-5"/><path d="M412 142.3c0 1.3.9 3.2 2.1 4.3 3.2 2.9 4.7 6.5 6.1 14.6l1.2 7.3 1.1-4.5c1.3-5.4 3.1-6 8.1-2.9l3.6 2.2-2.8-5.4a35 35 0 0 0-12.3-15.1c-5.5-3.4-7.1-3.5-7.1-.5" data-shape="paper-6"/><path d="M394.7 180.7c-3.2.9-5.6 1.8-5.3 2.1.7.6 9.8-1.8 11.1-2.9q.8-.9.5-.8z" data-shape="paper-7"/><path d="M391 185.6a453 453 0 0 0-48 14.5c0 .5 1.1 3.7 2.5 7.1l2.5 6.3 22.3 4.4 24.5 4.9q2.1.5 2.2-1c0-1.4 7-12.9 11-18.1l2.2-2.7-3.2-9.5c-1.7-5.2-3.2-9.5-3.3-9.4z" data-shape="paper-8"/><path d="M407 182.7c0 1.4 4.9 14.1 4.9 12.8a59 59 0 0 0-4.2-13.1q-.6-.6-.7.3" data-shape="paper-9"/><path d="m381 184.5-19.7 5.6a91 91 0 0 0-15.3 5c0 .5 2.1.1 4.8-.7l36.7-10.8c2.4-1-2.4-.3-6.5.9" data-shape="paper-10"/><path d="M409.2 205.3c-.5.6-1.3 2.2-1.6 3.4s-2 3.8-3.6 5.8-3.6 6-4.5 8.8c-3.2 10.1-3.5 10.5-9.9 14-8.8 4.9-17.5 8.2-33.6 12.6a81 81 0 0 0-16.2 5.7 43 43 0 0 0-10 16.6c-2.7 8.8-2.7 8.8 3.8 8.8 11.5 0 30.5-8.6 54.6-24.7 7.9-5.2 17-10.6 20.3-11.9a57 57 0 0 0 16.8-10.2c2.9-2.8 3.7-5.5 1.2-4.6-2 .8-1.9.1.4-3.8 2.2-3.4 1.8-6.1-.4-3.1-2 2.7-3 .8-1.1-2.1 1.5-2.5 2.2-6.6 1-6.6-.3 0-1.4 1-2.4 2.2-2.7 3.4-3.2 1.7-.9-3q3.7-7.4-3-7.1-2.6.1-.8.6 4.8 1-4.4 7.8c-7.3 5.4-8.4 5.1-5.3-1.2q3.7-7.4 1.5-8.7-.9-.4-1.9.7" data-shape="paper-11"/><path d="M418.5 242.5a58 58 0 0 1-8.7 4.2l-4.6 1.6-3.7 15.6-4.1 17.2c-.4 1.3 2.8.7 16.8-3.4l17.5-5.1A401 401 0 0 0 423 240c-.3 0-2.3 1.2-4.5 2.5" data-shape="paper-12"/><path d="M328 244.9c-16 5-27.1 24.1-19.9 34.2 1.8 2.6 5.1 4.1 4.8 2.1s.2-3.3 1.1-2.7c.6.3 1 1.8 1 3.1 0 6.7 9.1 10.4 15.8 6.4 3.8-2.4 4-3 .7-3q-2.6-.1-1.8 1.6c1 2.6-2 1.2-3.5-1.7-4.1-7.8 5.5-28.6 15.6-33.8 3.5-1.8 3.5-1.8 1.3-3-5.6-3-21.2 7.3-24.4 16.1q-.4 1.1-1.1.7c-2.7-2.5 7-13.8 14.9-17.5 2.8-1.3 4.3-2.4 3.5-2.4s-2.4-.2-3.5-.5a12 12 0 0 0-4.5.4" data-shape="paper-13"/><path d="M443 292.2c0 1.8-.7 6-1.5 9.3q-2.7 11.5.1 4c1.6-4.3 3.1-16.5 2-16.5-.3 0-.6 1.5-.6 3.2" data-shape="paper-14"/><path d="M255.4 365c-3.7 1.5-8.3 11.5-16 35a74 74 0 0 0-1.4 28.8c2.6 15.7 7.4 14.9 16.3-2.8l5.8-11.5-2.5-.3c-12.8-1.6-5.4-34.8 9.9-44.3l2.9-1.8-3.4-1.5q-7.8-3-11.6-1.6" data-shape="paper-15"/><path d="M264.5 376.1c-9.2 10.3-14 29.5-8.5 34.4 2.5 2.3 4.2 1 7.7-5.9 1.4-2.8 3.6-6.2 4.8-7.6 1.7-1.8 2.6-4.7 3.5-10.5.7-4.4 1.8-9.2 2.6-10.6 3-5.8-4.8-5.6-10.1.2" data-shape="paper-16"/><path d="M439.5 534.1c-2.2.6-7.1 1.3-11 1.7-7.4.7-9.2 2.4-6.3 5.9 4.1 5.1 29.2 13 36.4 11.5l3.8-.8-6.6-4.7c-7.7-5.4-10.8-9-10.8-12.3 0-1.3-.3-2.4-.7-2.3z" data-shape="paper-17"/><path d="M414.7 548.5a38 38 0 0 0-2.7 8.6c0 2.7 6 5.3 16.6 7.3 4.5.8 12.7 2.9 18.3 4.5 13 3.9 28.6 5.5 38.7 4.1 15.5-2.1 15.1-5.3-1.6-11.6a156 156 0 0 1-13-5.4c-3.4-1.8-4.1-1.8-8.6-.4-9.7 2.9-35.1-4-41.8-11.5-2.7-3-2.9-2.8-5.9 4.4" data-shape="paper-18"/></g><g fill="var(--art-accent,currentcolor)" data-part="accent"><path d="M342 215.9c0 1 20.8 28.5 21.9 28.9s24.4-9.1 27.5-11.2c2.9-1.8 5.2-7.5 3.3-8l-9.2-2-25.4-5.1c-19.8-4-18.1-3.8-18.1-2.6" data-shape="accent-1"/><path d="m338.7 226.7-2.3 11.6-.6 3.7 5.5 2.4c3 1.4 5.7 3 5.9 3.6.3 1.1 10.4-.6 12.2-2.1.6-.5-13.3-20.4-18.4-26.2-.3-.4-1.4 2.7-2.3 7" data-shape="accent-2"/><path d="m396.3 254.3-9.6 7-5.5 3.7 5.4 9.9c3 5.4 5.4 10.4 5.4 11 0 2.7-1.8.4-6.5-8a83 83 0 0 0-6.1-10q-1.2-.8-13.7 5.6a58 58 0 0 0-11.9 6.9c1.6.9 36.3 7.7 37.9 7.4 1.3-.2 2.3-3.1 4.4-12.3l4.2-18.3c1.7-7.1 1.6-7.2-4-2.9" data-shape="accent-3"/></g><g fill="var(--art-ink,currentcolor)" data-part="ink"><path d="M609 16.6a280 280 0 0 0-33.2 7.2c-.4.4.8 5.6 2.7 11.6 4.3 13.4 4.4 12-.9 16.9-4.1 3.8-4.8 5.3-8 15.8-4.3 14-4.8 14.7-18.9 25.2-22.9 17.1-32.5 23.1-35 22-3-1.3-7.8.1-10.7 3.2-1.3 1.4-3.4 2.5-4.7 2.5-3.6 0-8.1 2.7-9.7 5.8-2.1 4.2-23.3 11.1-37.3 12.2-5.6.5-14.2 1.9-19.1 3.1-8.8 2.1-9 2.1-11.6.3-3.3-2.4-3.3-2.5 1.1-4.9 2.1-1.1 4.7-3.4 5.8-5q2-3 4.9-3.2c3.7-.3 10.2-6.4 11.7-11 1.1-3.6.8-11.4-.6-14.8-.7-1.8-.5-1.7 1.8.4l2.6 2.3 2-3.3c4-6.5 2.3-15.4-4-21.8-4.7-4.7-6.7-5.9-17.1-10-9.6-3.9-10.4-4.5-11.3-10.2-.9-5.8-5.8-11.4-13-15-12.5-6.1-28.9-2.9-42.6 8.5-4 3.3-7 4.9-10.5 5.5-16.2 3.2-26.1 11.3-33.3 27.4-3.6 8-9.3 14-18.2 18.9-10.3 5.8-15.9 12.9-15.9 20.1 0 2.6 1.8 7.5 2.1 5.7l.5-3.9a23 23 0 0 1 9.1-14.3c14.3-9.3 15.1-9.4 6.4-.4-12.9 13.6-15.4 29.2-5.9 38.3 5 4.8 10.8 6.7 10.8 3.5 0-.9 1-3.3 2.2-5.2l2.2-3.5.9 3.8c1.3 5.5 6.6 10.3 13.2 12.3 5.4 1.5 10.9 1.2 12-.6.3-.5 1.8-.1 3.4.8l2.9 1.6-4.4 3.3c-9.3 7.1-14.3 16.3-25.5 46.3-4 10.7-8.9 22.2-10.9 25.5-6.5 10.7-7.5 16.7-4 24.4 1.1 2.4 2 6.4 2 8.8 0 5.5 2.9 10.7 7.3 13 1.8.9 4.7 2.9 6.5 4.4a10 10 0 0 0 7.6 2.9c4.3 0 5.6-.7 14.9-8.2q5-4.2 21-.4c6.5 1.5 7.7 2.1 7.1 3.5-8.3 19.1-11 40.2-8.4 65.6.8 7.9 1.5 10.3 5.9 19 2.8 5.5 4.1 8.9 3 7.5a54 54 0 0 1-5.1-8.4l-3-6-3.3 5.2c-3.2 5.2-5.8 12-8.2 22.2l-1.3 5.5.4-5.5c.5-7 3.6-15.9 8.1-23.2 1.9-3.1 3.5-6.2 3.5-6.8 0-2.1-7.8-.2-15.7 3.7l-7.1 3.6-13-1.7c-17.7-2.2-40.4-2.2-44.2.1-2.8 1.6-2.9 1.6-6.3-1.4-3.9-3.4-7.6-4.8-15.1-5.7-4.6-.6-5-.4-8.6 3.2a35 35 0 0 0-8 17.3c0 1.1-1.3 5.1-2.9 8.7a53 53 0 0 0-5.5 26.7c0 16.7 3.9 26.5 10.5 26.5 5.4 0 12.5-11 20.3-31 6.3-16.3 7.2-16.5 8-2.4 1.1 19.1 5.3 41.1 8.3 43.6 4.5 3.7 83.3-15.9 111.8-27.8a37 37 0 0 0 22.3-21.5c9.2-19.6 17.4-52.6 21.7-87.9.7-5.8 1.3-8.9 1.4-7l.2 3.5 1.4-2.5c1.4-2.4 4-13.2 4.8-19.5q.4-3.7.6 1c.1 3.7-1.6 11.9-3.5 17-.7 1.8-.6 1.9 1.1.5q2.3-2.2.8.5c-.6 1.1-2 2.8-3.1 3.8q-2 1.8-2.7 8a391 391 0 0 1-9.6 52c-2.8 10.7-3.1 13-2.8 25 .2 12.8-1 26.4-5.9 63.4-1 7.3-1.5 13.3-1.2 13.3s6.6-12.1 14-27a651 651 0 0 1 13.7-26.6c.9.8-15.6 35.9-23.7 50.5a137 137 0 0 0-15.1 39.9c-4 15.5-4.7 20.6-2.9 21.7.5.3 3.9.9 7.4 1.4 7.6.9 8.5 1.4 6.2 3.7a39 39 0 0 0-7.8 19.4c-.2 5.9 5.8 9.1 21 11 4.1.5 11.3 2.3 16 3.9 23.5 8.1 55.2 6 55.2-3.7 0-4.2-5.2-7.7-20.6-13.7-20.1-7.9-32.4-16.2-32.4-22 0-1.7 1.3-2.5 7.3-4.4 3.9-1.3 17.1-6.1 29.2-10.6a1090 1090 0 0 1 29-10.5c3.9-1.2 7.5-2.7 8.2-3.4.8-.8-.2-6.9-4.3-24.6-8.5-37-19.2-90.3-20.9-104a408 408 0 0 0-18.6-88 151 151 0 0 0-16.4-32.7q-6.6-7.9-2.6-12.5c3.4-3.6 4.1-8.1 2.6-16.1-1.2-6.3-1.1-8.7.4-19l1.7-11.8 11.3-6a104 104 0 0 0 24.5-16.7q1.8-2.2 4.6-1.6c3.2.7 9.6-2 11-4.6.5-1 2.2-2.1 3.7-2.5a15 15 0 0 0 11.3-14.6c0-2.7 1.7-4.7 12.1-14.7 6.7-6.4 17.8-18.4 24.7-26.7 6.9-8.2 13.8-15.5 15.2-16.1 1.5-.7 4.3-2.6 6.2-4.3 4.4-3.8 3.9-4.5 7.3 11.1 1.5 6.9 3.1 13.1 3.4 13.7q.6 1.2 12.7-2.8c12-4 31.9-9 44.9-11.3 6.1-1.1 7-1.6 6.7-3.3-.5-2.9-23-74.1-24.7-78.1l-1.4-3.4-9.3.1c-5.1.1-13.6.7-18.8 1.5m30.3 13.1 12.2 38.8c8.8 28.1 8.8 28.5 3.6 28.5-5.5 0-41.2 9.3-52.3 13.5q-1.8.8-2.3-1.7l-5-21.2-4.6-18.9 5.6-5.4c9.2-8.6 6.3-14.7-4.2-8.9a23 23 0 0 1-4.8 2.4L583.6 43c-2.1-7.4-4.2-14.3-4.7-15.2-1.1-2.1 1.3-2.9 20.1-6.3 17.1-3.1 17.8-3.2 28.1-3.4l8.6-.1zm-56.7 26.8q-1.6 1.4-1.1 2.6t-1.6 3c-4 3-1.3 3.3 3.8.4 14.9-8.6 15.3-8.8 15.3-6.7 0 1.1-2.3 3.9-5.5 6.6-4.2 3.6-5.6 5.5-6.1 8.4-.8 4.7-2 7-5.2 10.4-1.4 1.5-2.2 3.1-1.9 3.5s2.7-1.4 5.1-4l4.5-4.6.6 3q1.2 5.4-9.3 11.6a87 87 0 0 0-14 14.2c-15.1 18.1-36.4 39-37.2 36.5l-2.6-7.8a57 57 0 0 0-7.4-15c0-.2 4.2-3.2 9.3-6.7q35.3-24 38.7-31c1-1.9 3.1-7.8 4.5-13 3.2-11.1 9.1-19.1 10.9-14.8.8 1.6.6 2.4-.8 3.4m-183.7 8.8a22 22 0 0 1 10.5 11.9c2 4.1 6 6.2 9.9 5.3 3.4-.9 4.4 1.3 2.7 5.4-.9 2.4-.9 3.4.4 5.9a15 15 0 0 1 1.6 4c0 1.8-7 4.4-10 3.7-3.1-.7-4.2.8-1.4 1.9 2.7 1 6.4.7 9.5-1 4-2 4.3-1.6 4.7 6.5.4 6.8.4 6.8-3.2 9.8-2 1.6-6.6 4-10.4 5.3-9.3 3.2-10.5 4.5-6.9 7.4 2.3 1.9 2.7 2.9 2.7 7.6 0 8.7 2.7 16 4.3 11.7.9-2.3 3.8 6.5 4.9 14.9.7 4.6.9 8.6.6 8.9-.6.6-6.4-3.3-16.3-10.8l-11.5-8.5-6.5-4.7.4-10.1c.5-14.8-2.9-22-8.3-17.9-5.2 4-13.6-.7-13.6-7.6 0-5.3 3.4-7.7 8.8-6.1 6.8 2.1 11.1-5.8 7.5-13.9l-2-4.4 2.4-5c2.3-5 3.2-5 1.3-.1-1.6 4.3.8 3 4-2.1a25 25 0 0 0 4.6-17.1c-.6-4.4-.6-4.4 2.2-3.7 1.5.3 4.7 1.6 7.1 2.8m118 55.2a46 46 0 0 1 10.1 28.7c0 5-.4 6.2-3.1 9.3q-6.3 7-5.2-.4c.6-4.7-.3-9.4-1.7-8.6-.6.3-1 3.1-1 6.2 0 6.6-2.1 10.6-6.6 12.8-5.6 2.6-6.6 2.1-4.7-2.2 4.5-10.8-2.2-34.2-10.8-37.6-2.2-.9 3-4.7 6.4-4.7 4.1 0 6.1 1.4 9.3 6.5 2.5 3.9 4.4 5.6 4.4 4 0-1.7-4.3-8.6-6.4-10.3l-2.5-1.9 2.2-2q3.1-2.9 5.8-3.2c.4-.1 2.1 1.5 3.8 3.4m-21 14.2a29 29 0 0 1-3.2 40.8c-5 4.5-23.1 15.2-28.5 17-3.5 1.1-2.8-1.4 5.4-17.6a60 60 0 0 0 6.2-14.7c-.7.2-4.2 6.1-7.8 13.1a111 111 0 0 1-7.1 12.7c-.3 0-1.6-3.8-2.9-8.5a26 26 0 0 0-3.2-8.5q-1.8 0 2.3 16.2c2.1 8.4 2.1 8.9 1.7 36-.4 22.4-.6 22.9-11.8 25.3l-3.5.7 2.8-2.9c5-5.3 2.8-5.5-3.2-.3-8.7 7.6-10.9 7.4-13.3-1.3-1.8-6.4-1.8-7-.3-9.3 2.1-3.2 1.3-18.8-1-21.4a7 7 0 0 1-1.5-3.7q0-4-6.3-5c-3.4-.5-3.4-.5-6.7-11.7-3.7-12.5-4.3-13.6-7.1-12.9q-2 .4-3.2-1c-1.1-1.5-3.9-1-28.7 5.4-15.1 3.9-28 7.7-28.6 8.5s-1.7 1.4-2.3 1.4q-1.1.1-.9 1.4c.2.8-.6 2.1-1.7 2.9-1.9 1.5-1.9 1.5.3 7.8 2.7 7.8 2.7 7.7 0 8.1-2 .3-2.6 1.5-4.7 10.3-4.6 19.6-3.6 17.5-7.8 16.3-3.9-1.1-10.3-.3-10.3 1.2 0 .6 1.7 1 3.8 1.1h3.7l-4 1.9a37 37 0 0 0-15.5 14.3c-3.4 5.9-4.5 4.9-4.5-3.9.1-4.1.9-6.5 4.7-13 2.5-4.3 7.1-14.7 10.2-23.1 15.6-41.9 20.1-48.1 41.4-56.3 11.9-4.6 11.2-4.5 11.2-2.4 0 4.2 10.7 20.4 13.4 20.4.7 0 3.4-2.7 6-6 3.5-4.4 5.4-6 7.2-6q4.1-.1.9-3c-2.3-1.9-5.2 0-10.2 6.6l-4.2 5.5-3.2-4.3a79 79 0 0 1-5.9-10.1c-2.7-5.6-2.8-6-1.3-9.5 2.1-5.2 6.1-10.2 8-10.2 1.4 0 1.4.2-.2 1.4-3 2.2 1.4 7.7 12.3 15.5l19 13.8 10 7.2 3.8 9.8c4 10.5 5.4 12.9 5.4 9.7 0-2.3-5.5-16.9-7.6-20.1-1.8-2.9-1.8-5.6.4-12.5l1.8-5.6 4.7 2.6c3.5 1.9 5 2.3 5.9 1.4 1.4-1.4-1.2-8.8-5.4-15.1a18 18 0 0 1-2.6-4.6c1.3-1.2 19.9-4.5 24.9-4.5 7 0 15.6-2.1 29.4-7.4l9.7-3.5c.3-.1 2 1.6 3.7 3.6m-76.8 8.1c5 3.3 8.4 7.4 12.3 15.1l2.8 5.4-3.6-2.2c-5-3.1-6.8-2.5-8.1 2.9l-1.1 4.5-1.2-7.3c-1.4-8.1-2.9-11.7-6.1-14.6-2.3-2.1-2.9-6.6-.8-6.6.7 0 3.3 1.3 5.8 2.8m-18.6 37.1a30 30 0 0 1-11.1 2.9c-.4-.4 6.2-2.5 11.6-3.7q.3 0-.5.8m6.5 11.6 3.2 9.5-2.2 2.7c-4 5.2-11 16.7-11 18.1q0 1.5-2.2 1l-24.5-4.9-22.3-4.4-2.5-6.3a48 48 0 0 1-2.5-7.1c0-.8 22.7-7.7 48-14.5l12.7-3.5c.1-.1 1.6 4.2 3.3 9.4m3.2-2.7c1 3.1 1.8 6.1 1.7 6.7 0 1.3-4.9-11.4-4.9-12.8 0-2.2 1.5.6 3.2 6.1m-22.7-5.2-16.5 4.8-20.2 6c-2.7.8-4.8 1.2-4.8.7s6.9-2.7 15.3-5l19.7-5.6c4.1-1.2 8.9-1.9 6.5-.9m24.5 23.3c0 1-1.1 3.9-2.4 6.4-3.1 6.3-2 6.6 5.3 1.2q9.2-6.7 4.4-7.8-1.8-.5.8-.6 6.7-.3 3 7.1c-2.3 4.7-1.8 6.4.9 3 1-1.2 2.1-2.2 2.4-2.2 1.2 0 .5 4.1-1 6.6-1.9 2.9-.9 4.8 1.1 2.1 2.2-3 2.6-.3.4 3.1-2.3 3.9-2.4 4.6-.4 3.8 2.5-.9 1.7 1.8-1.2 4.6a57 57 0 0 1-16.8 10.2c-3.3 1.3-12.4 6.7-20.3 11.9-24.1 16.1-43.1 24.7-54.6 24.7-6.5 0-6.5 0-3.8-8.8 1.9-6 6.2-13.1 10-16.6a81 81 0 0 1 16.2-5.7c16.1-4.4 24.8-7.7 33.6-12.6 6.4-3.5 6.7-3.9 9.9-14 .9-2.8 2.9-6.8 4.5-8.8s3.2-4.6 3.6-5.8c1.4-4.6 4.4-5.8 4.4-1.8m-51.9 11.6 25.4 5.1 9.2 2c1.9.5-.4 6.2-3.3 8a192 192 0 0 1-27.5 11.2 354 354 0 0 1-21.9-28.9c0-1.2-1.7-1.4 18.1 2.6m-9.1 14.3c5 6.8 8.8 12.7 8.4 13.1-1.8 1.5-11.9 3.2-12.2 2.1-.2-.6-2.9-2.2-5.9-3.6l-5.5-2.4.6-3.7c1.9-10.8 4-19.3 4.6-18.6zm76.7 23.4a355 355 0 0 1 4 16.4l-17.5 5.1c-14 4.1-17.2 4.7-16.8 3.4l4.1-17.2 3.7-15.6 4.6-1.6c2.6-1 6.5-2.8 8.7-4.2 2.2-1.3 4.2-2.5 4.5-2.5s2.4 7.3 4.7 16.2M336 245c.8 0-.7 1.1-3.5 2.4-7.9 3.7-17.6 15-14.9 17.5q.7.4 1.1-.7c3.2-8.8 18.8-19.1 24.4-16.1 2.2 1.2 2.2 1.2-1.3 3-10.1 5.2-19.7 26-15.6 33.8 1.5 2.9 4.5 4.3 3.5 1.7q-.8-1.7 1.8-1.6c3.3 0 3.1.6-.7 3-6.7 4-15.8.3-15.8-6.4 0-1.3-.4-2.8-1-3.1-.9-.6-1.4.8-1.1 2.7s-3 .5-4.8-2.1c-4.1-5.7-1.8-16.7 5.1-24.6 5.4-6.1 14.7-10.9 19.3-10 1.1.3 2.7.5 3.5.5m64.3 12.2-4.2 18.3c-2.1 9.2-3.1 12.1-4.4 12.3-1.6.3-36.3-6.5-37.9-7.4-.4-.3 5-3.4 11.9-6.9q12.5-6.4 13.7-5.6c.6.6 3.4 5 6.1 10 4.7 8.4 6.5 10.7 6.5 8 0-.6-2.4-5.6-5.4-11l-5.4-9.9 5.5-3.7 9.6-7c5.6-4.3 5.7-4.2 4 2.9M267 366.6l3.4 1.5-2.9 1.8c-5 3.1-8.2 7.2-12.1 15.5-6.7 14.1-5.7 27.8 2.2 28.8l2.5.3-5.8 11.5c-8.9 17.7-13.7 18.5-16.3 2.8a74 74 0 0 1 1.4-28.8c11.7-35.8 14.2-38.8 27.6-33.4m8.3 6c.3.4 0 1.8-.7 3.3-.8 1.4-1.9 6.2-2.6 10.6-.9 5.8-1.8 8.7-3.5 10.5a46 46 0 0 0-4.8 7.6c-3.5 6.9-5.2 8.2-7.7 5.9-7.6-6.9 5-38.5 15.4-38.5 1.8 0 3.5.3 3.9.6M445 535.4c0 3.3 3.1 6.9 10.8 12.3l6.6 4.7-3.8.8c-7.2 1.5-32.3-6.4-36.4-11.5-2.9-3.5-1.1-5.2 6.3-5.9 3.9-.4 8.8-1.1 11-1.7l4.8-1c.4-.1.7 1 .7 2.3m-24.4 8.7c6.7 7.5 32.1 14.4 41.8 11.5 4.5-1.4 5.2-1.4 8.6.4a156 156 0 0 0 13 5.4c16.7 6.3 17.1 9.5 1.6 11.6-10.1 1.4-25.7-.2-38.7-4.1-5.6-1.6-13.8-3.7-18.3-4.5-10.6-2-16.6-4.6-16.6-7.3a51 51 0 0 1 6-15.1q.8.1 2.6 2.1" data-shape="ink-1"/><path d="M615.5 41.6c-14.5 2.2-19.6 3.5-18.9 4.6.3.5 1.6.7 2.9.4s7.4-1.3 13.6-2.1c14.7-2 16.9-2.5 16.9-3.6s-3.4-1-14.5.7" data-shape="ink-2"/><path d="M623.7 56.5c-13 2.2-22.7 4.6-22.7 5.6 0 1.3.6 1.2 17.6-1.9a72 72 0 0 0 15.5-3.7c.6-1.5-1.8-1.5-10.4 0" data-shape="ink-3"/><path d="M625.5 70.6c-13.2 2-19.4 3.4-20 4.5-.9 1.3 1.5 1.2 16-1.1 17-2.7 17.7-2.9 17-4s-1.6-1.2-13 .6" data-shape="ink-4"/><path d="M394.9 74.3a11 11 0 0 0-3.9 8.6c0 4.5 1.4 3.8 2.8-1.4.7-2.5 2-4.9 3.2-5.5 2.2-1.2 2.7-3 .8-3a6 6 0 0 0-2.9 1.3" data-shape="ink-5"/><path d="M401.7 82.7c-2 1.9 1.1 7.3 4.1 7.3 1.9 0 1.4-3.4-.8-5.8s-2.4-2.5-3.3-1.5" data-shape="ink-6"/><path d="M366.5 113q-.4.9 1.5 1c1.2 0 3 .5 4.2 1.1 2.7 1.4 3.8.1 1.4-1.7-2.3-1.6-6.2-1.9-7.1-.4" data-shape="ink-7"/><path d="M418.5 186c-.7 1.2.2 3 1.6 3q.8-.2.9-2c0-2.1-1.5-2.7-2.5-1" data-shape="ink-8"/></g></svg>